<svg width="324" height="246" viewBox="0 0 324 246" fill="none" xmlns="http://www.w3.org/2000/svg">
<g clip-path="url(#clip0_1025_21618)">
<line x1="232.504" y1="213.61" x2="311.374" y2="219.746" stroke="#BEBECB" stroke-width="0.594186"/>
<line x1="91.6854" y1="223.712" x2="266.97" y2="239.161" stroke="#BEBECB" stroke-width="0.594186"/>
<line x1="168.322" y1="221.483" x2="288.347" y2="231.584" stroke="#BEBECB" stroke-width="0.297093"/>
<line x1="15.6338" y1="242.132" x2="79.2117" y2="248.668" stroke="#BEBECB" stroke-width="0.594186"/>
<line x1="269.331" y1="206.629" x2="341.196" y2="211.416" stroke="#BEBECB" stroke-width="0.297093"/>
<line x1="48.8874" y1="232.178" x2="122.566" y2="236.931" stroke="#BEBECB" stroke-width="0.297093"/>
<path d="M-19.8484 135.353C-29.7658 144.928 -29.722 172.207 -28.4604 184.65C-21.1408 229.858 -8.69887 230.975 -2.03146 227.984C4.63595 224.993 11.4303 211.897 8.84297 181.458C6.2556 151.02 -7.45161 123.385 -19.8484 135.353Z" stroke="#BEBECB" stroke-width="0.297093"/>
<path d="M-157.52 177.743C-158.248 195.078 -151.961 210.586 -148.726 216.173C-144.139 220.232 -147.392 219.798 -123.323 220.214C-104.069 220.546 -100.215 205.722 -100.695 198.267M-157.52 177.743C-164.589 161.983 -165.093 152.744 -164.088 142.974C-163.083 133.203 -161.223 117.224 -161.382 113.946C-161.542 110.669 -162.902 107.638 -157.235 100.145C-151.568 92.6517 -136.781 73.3498 -128.218 60.6258C-119.656 47.9018 -94.6025 24.8681 -64.0266 19.0156C-33.4506 13.1631 -11.1259 12.6138 7.67417 11.0245C26.4743 9.43511 65.1621 8.68091 83.5282 10.3442C101.894 12.0076 123.598 19.1634 147.34 34.4335C153.81 38.9871 156.564 41.3626 157.133 41.9812C159.854 40.9061 167.835 39.2192 177.986 41.0728C190.675 43.3898 173.282 53.9589 187.864 53.6792C202.446 53.3995 229.149 54.8181 245.869 60.278C262.588 65.7378 277.046 68.4264 284.799 74.9964M-157.52 177.743C-157.823 170.792 -158.351 156.476 -158.044 154.824C-157.66 152.759 -157.136 140.292 -153.116 136.595C-149.095 132.898 -144.233 130.426 -137.969 151.207C-131.706 171.987 -127.619 195.055 -124.973 195.761C-122.855 196.326 -107.905 197.667 -100.695 198.267M284.799 74.9964C292.551 81.5664 293.108 82.4818 295.036 86.1311C296.964 89.7803 298.521 95.1981 301.068 98.2786M284.799 74.9964C277.521 78.3582 262.834 85.3735 262.31 86.5409M301.068 98.2786C303.614 101.359 309.893 114.706 310.345 132.269C310.797 149.832 311.743 169.795 308.6 173.826C305.457 177.857 296.465 179.56 295.425 183.085M301.068 98.2786C298.74 104.128 282.599 106.126 280.212 106.323C278.303 106.481 274.948 104.219 273.51 103.068C272.817 103.039 270.054 103.221 264.542 104.179M295.425 183.085C294.385 186.61 291.225 205.21 261.479 205.448C231.734 205.686 226.403 205.164 220.853 195.713M295.425 183.085C292.303 185.863 244.409 192.661 220.853 195.713M220.853 195.713C208.014 196.958 54.1889 206.258 54.0393 209.82M54.0393 209.82C53.8897 213.382 52.0394 236.201 21.6255 238.195C-8.78845 240.188 -12.0061 246 -29.2831 204.24M54.0393 209.82C44.3095 210.205 24.4545 210.481 22.872 208.512C20.8939 206.05 16.6104 180.595 11.04 157.464C5.46948 134.334 -4.8051 124.09 -12.8445 124.347C-20.8839 124.604 -23.7298 128.648 -29.3618 142.387C-33.8674 153.378 -31.1867 188.202 -29.2831 204.24M-29.2831 204.24C-38.2469 202.436 -80.6258 199.507 -100.695 198.267M262.31 86.5409C261.654 88.0001 267.984 93.0237 264.542 104.179M262.31 86.5409C261.478 85.6361 259.23 83.9084 256.284 83.398M264.542 104.179C264.123 106.115 262.777 109.586 259.116 113.025M206.33 88.3718C204.953 88.8023 204 89.2542 203.597 89.7251C200.845 92.9399 200.734 94.1643 201.023 94.3747C201.667 102.629 203.53 119.636 205.825 121.636C207.054 122.706 208.566 123.516 211.679 123.863M206.33 88.3718C208.172 98.7836 211.822 120.458 211.679 123.863M206.33 88.3718C207.254 88.0828 208.369 87.8033 209.636 87.5342M211.679 123.863C212.383 123.941 213.168 123.996 214.051 124.025M214.051 124.025C213.029 112.949 210.716 90.1438 209.636 87.5342M214.051 124.025C215.466 124.071 217.131 124.051 219.109 123.954M209.636 87.5342C211.06 87.2317 212.676 86.9423 214.43 86.6669M214.43 86.6669C217.892 96.2725 219.734 120.393 219.109 123.954M214.43 86.6669C215.389 86.5162 216.39 86.3698 217.422 86.2277M219.109 123.954C220.032 123.909 221.024 123.847 222.09 123.767M222.09 123.767C220.887 112.288 220.516 90.4356 217.422 86.2277M222.09 123.767C224.022 123.623 226.199 123.421 228.658 123.155M217.422 86.2277C219.416 85.9533 221.53 85.6952 223.699 85.4545M223.699 85.4545L228.658 123.155M223.699 85.4545C224.587 85.3559 225.485 85.2603 226.387 85.1677M228.658 123.155C229.519 123.062 230.415 122.961 231.347 122.852M226.387 85.1677C228.492 96.4084 232.431 119.682 231.347 122.852M226.387 85.1677C228.769 84.9232 231.184 84.6996 233.552 84.4984M231.347 122.852C232.756 122.687 234.249 122.504 235.83 122.301C236.234 122.249 236.633 122.195 237.026 122.138M237.026 122.138C236.902 110.942 238.351 90.5898 233.552 84.4984M237.026 122.138C238.28 121.956 239.477 121.75 240.621 121.52M233.552 84.4984C234.659 84.4043 235.756 84.3151 236.834 84.231M236.834 84.231C241.801 93.4109 241.843 115.077 240.621 121.52M236.834 84.231C239.472 84.0251 241.998 83.8494 244.29 83.706M240.621 121.52C243.57 120.929 246.163 120.187 248.443 119.341M248.443 119.341C248.196 108.701 247.02 86.6779 244.29 83.706M248.443 119.341C249.293 119.026 250.099 118.697 250.864 118.356M244.29 83.706C245.117 83.6543 245.914 83.6068 246.675 83.5636M246.675 83.5636C251.931 92.9442 252.273 113.119 250.864 118.356M246.675 83.5636C249.42 83.4077 251.694 83.3081 253.229 83.2696M250.864 118.356C253.084 117.365 254.957 116.274 256.533 115.142M253.229 83.2696C254.048 83.2491 254.656 83.246 255.013 83.261C255.449 83.2793 255.874 83.3268 256.284 83.398M253.229 83.2696C256.755 91.3627 256.631 110.626 256.533 115.142M256.533 115.142C257.501 114.447 258.358 113.736 259.116 113.025M259.116 113.025C258.921 104.893 258.082 87.5843 256.284 83.398" stroke="#BEBECB" stroke-width="0.297093"/>
<path d="M302.955 132.986L278.629 141.448C277.911 141.698 277.555 142.569 277.811 143.285C279.698 148.55 283.517 165.113 284.937 166.132C286.524 167.272 297.872 163.188 304.877 158.654C310.208 155.203 307.017 141.229 304.45 133.702C304.24 133.086 303.569 132.772 302.955 132.986Z" stroke="#BEBECB" stroke-width="0.297093"/>
<path d="M50.8528 158.244C51.556 156.584 90.9616 157.049 117.186 157.627C118.58 157.658 118.846 159.923 117.526 160.369C114.442 161.412 111.605 162.602 110.391 163.718C107.298 166.561 94.3055 185.641 90.978 186.988C87.6505 188.335 55.1089 191.429 52.2154 189.523C49.3219 187.618 49.8625 160.581 50.8528 158.244Z" stroke="#BEBECB" stroke-width="0.297093"/>
<path d="M119.033 99.5543C103.387 99.1946 66.5749 98.2434 44.4907 97.316C23.2262 96.4231 14.8159 103.238 13.0163 107.145C12.8884 107.423 12.9055 107.741 13.0387 108.016C24.0727 130.788 87.6382 126.127 96.4738 124.85C96.7508 124.81 96.9602 124.672 97.146 124.463C100.447 120.743 103.248 120.226 122.403 118.429M119.033 99.5543C116.752 101.936 114.233 109.046 122.403 118.429M119.033 99.5543C122.07 97.649 129.107 94.5566 139.253 92.4807M122.403 118.429C131.928 124.491 137.621 127.521 145.534 128.916M168.904 129.897C165.727 129.953 162.873 129.979 160.278 129.96M168.904 129.897C169.023 127.048 166.389 104.814 161.942 90.3155M168.904 129.897C169.821 129.881 170.713 129.86 171.582 129.834M139.253 92.4807L145.534 128.916M139.253 92.4807C140.318 92.2628 141.417 92.0561 142.549 91.8631M145.534 128.916C146.731 129.127 147.978 129.3 149.297 129.441M149.297 129.441C147.527 117.313 143.699 92.8185 142.549 91.8631M149.297 129.441C151.689 129.697 154.317 129.846 157.306 129.916M142.549 91.8631C144.812 91.4776 147.207 91.1469 149.727 90.8915M149.727 90.8915C152.696 102.798 158.369 127.272 157.306 129.916M149.727 90.8915C151.084 90.754 152.476 90.6382 153.904 90.5475M157.306 129.916C158.259 129.938 159.248 129.953 160.278 129.96M160.278 129.96C158.801 117.919 155.459 93.1784 153.904 90.5475M153.904 90.5475C156.198 90.4016 158.582 90.3203 161.05 90.3166C161.35 90.3162 161.647 90.3158 161.942 90.3155M161.942 90.3155C162.855 90.3145 163.747 90.3142 164.619 90.3152M171.582 129.834C169.91 117.728 166.176 92.8764 164.619 90.3152M171.582 129.834C173.824 129.765 175.907 129.66 177.84 129.511M164.619 90.3152C167.166 90.3183 169.541 90.3327 171.753 90.3746M171.753 90.3746L177.84 129.511M171.753 90.3746C172.777 90.394 173.767 90.4193 174.723 90.452M177.84 129.511C178.77 129.439 179.666 129.357 180.527 129.264M180.527 129.264C179.043 117.389 175.805 93.001 174.723 90.452M180.527 129.264C183.657 128.925 186.34 128.438 188.619 127.762M174.723 90.452C176.985 90.5294 179.056 90.6487 180.952 90.8308M180.952 90.8308C183.763 101.768 189.233 124.465 188.619 127.762M180.952 90.8308C182.266 90.9571 183.496 91.1137 184.646 91.3075M188.619 127.762C190.142 127.309 191.485 126.772 192.659 126.137M192.659 126.137C198.474 122.994 200.166 117.456 199.262 107.978C198.227 97.125 194.225 92.9226 184.646 91.3075M192.659 126.137C190.511 115.045 185.9 92.5496 184.646 91.3075" stroke="#BEBECB" stroke-width="0.297093"/>
<path d="M126.65 180.16C125.938 175.026 130.251 165.162 132.661 160.54C132.778 160.317 132.88 160.17 133.122 160.1C140.927 157.853 269.135 144.514 271.765 144.624C274.436 144.736 280.652 159.568 280.825 162.549C280.997 165.529 275.477 176.597 270.256 180.541C265.036 184.484 150.998 195.158 148.623 195.058C146.249 194.959 127.563 186.74 126.65 180.16Z" stroke="#BEBECB" stroke-width="0.297093"/>
<path d="M-36.7718 71.0085C-40.7699 56.784 -48.6293 29.1766 -50.85 22.6308C-51.0849 21.9385 -50.76 21.2053 -50.0369 21.0974C-36.9041 19.1378 66.5603 8.69003 98.1219 13.9159C98.2093 13.9304 98.2809 13.9511 98.3628 13.9849C118.609 22.3349 168.579 52.5744 166.764 53.3885M-36.7718 71.0085C-36.958 73.0821 -36.6923 77.6131 -34.14 79.1476C-30.9497 81.0657 20.8236 80.2663 47.1622 97.4295M-36.7718 71.0085C-29.5422 67.0135 23.9896 62.6645 74.3367 59.2796M-36.7718 71.0085C9.93799 72.7718 107.382 78.192 123.477 85.7665M166.764 53.3885C165.885 53.7831 121.508 56.1082 74.3367 59.2796M166.764 53.3885C175.656 56.4381 194.51 63.9501 198.792 69.6012M74.3367 59.2796C95.2416 61.8559 139.497 68.2411 149.281 73.1718" stroke="#BEBECB" stroke-width="0.297093"/>
<path d="M43.8074 106.507C41.8319 108.703 39.1296 114.517 44.1245 120.198C50.3681 127.3 64.8155 123.149 66.8582 116.99" stroke="#BEBECB" stroke-width="0.297093"/>
<path d="M41.1516 107.287C39.2743 109.516 36.6987 115.411 41.4143 121.149C47.3089 128.322 61.0051 124.08 62.957 117.838" stroke="#BEBECB" stroke-width="0.297093"/>
<path d="M73.5404 106.565C71.6015 110.25 69.4179 118.346 76.1947 121.247C84.4386 124.776 95.1226 117.143 99.6807 113.062C99.9155 112.852 100.22 112.741 100.535 112.752C105.118 112.919 109.62 112.732 111.348 112.613" stroke="#BEBECB" stroke-width="0.297093"/>
<path d="M70.3941 107.325C68.4552 111.01 66.2716 119.105 73.0484 122.007C81.2923 125.536 91.9763 117.903 96.5344 113.822C96.7692 113.611 97.074 113.501 97.389 113.512C101.972 113.679 106.474 113.492 108.202 113.373" stroke="#BEBECB" stroke-width="0.297093"/>
<path d="M266.648 96.5356C268.486 97.604 272.504 100.112 273.869 101.597C275.575 103.452 280.337 103.355 281.043 100.708C281.749 98.0618 283.26 90.394 280.738 86.7199" stroke="#BEBECB" stroke-width="0.297093"/>
<path d="M267.797 97.475C269.636 98.5434 273.654 101.051 275.019 102.536C276.725 104.392 281.487 104.294 282.193 101.648C282.898 99.0012 284.41 91.3335 281.888 87.6593" stroke="#BEBECB" stroke-width="0.297093"/>
<path d="M290.349 84.4467C291.77 88.372 293.877 96.7269 290.938 98.7444C287.264 101.266 284.852 102.057 281.464 97.7519" stroke="#BEBECB" stroke-width="0.297093"/>
<path d="M291.511 85.0912C292.932 89.0165 295.04 97.3715 292.1 99.389C288.426 101.911 286.014 102.702 282.627 98.3964" stroke="#BEBECB" stroke-width="0.297093"/>
<path d="M126.603 96.3046C129.47 103.561 135.576 121.957 135.189 125.509M128.125 95.4764C130.992 102.733 137.617 122.934 137.23 126.486" stroke="#BEBECB" stroke-width="0.297093"/>
</g>
<defs>
<clipPath id="clip0_1025_21618">
<rect width="492" height="246" fill="white" transform="translate(-168)"/>
</clipPath>
</defs>
</svg>
