<svg width="64" height="24" viewBox="0 0 64 24" fill="none" xmlns="http://www.w3.org/2000/svg">
<path d="M46.52 3.46867C45.0305 2.93024 43.4578 2.65875 41.874 2.66667C36.76 2.66667 33.146 5.25067 33.124 8.94867C33.082 11.6667 35.686 13.1987 37.654 14.1147C39.676 15.0527 40.352 15.6367 40.342 16.4687C40.332 17.7507 38.726 18.3227 37.248 18.3227C35.194 18.3227 34.08 18.0427 32.362 17.3227L31.724 17.0207L30.996 21.2927C32.246 21.8027 34.486 22.2507 36.798 22.2927C42.246 22.2927 45.798 19.7307 45.838 15.7807C45.88 13.6147 44.486 11.9707 41.516 10.6147C39.724 9.74067 38.602 9.14467 38.602 8.24867C38.602 7.45667 39.56 6.62467 41.56 6.62467C42.8873 6.59142 44.2068 6.83599 45.434 7.34267L45.924 7.56067L46.642 3.44667L46.52 3.46867ZM59.814 3.02067H55.814C54.564 3.02067 53.636 3.35467 53.084 4.59467L45.396 22.0207H50.834L51.93 19.1667L58.564 19.1767C58.73 19.8427 59.198 22.0187 59.198 22.0187H64L59.814 3.02067ZM25.76 2.86467H30.938L27.698 21.8727H22.52L25.76 2.85467V2.86467ZM12.594 13.3327L13.124 15.9787L18.196 3.02067H23.686L15.518 21.9887H10.052L5.572 5.92667C5.53768 5.79325 5.47653 5.66822 5.39228 5.55922C5.30803 5.45021 5.20246 5.35952 5.082 5.29267C3.47277 4.45569 1.76566 3.82216 0 3.40667L0.062 3.00867H8.416C9.542 3.05067 10.458 3.40667 10.77 4.61467L12.594 13.3427V13.3327ZM53.406 15.2807L55.48 9.95867C55.448 10.0087 55.906 8.86467 56.166 8.14467L56.52 9.77867L57.72 15.2687H53.406V15.2807Z" fill="#51BEF9"/>
</svg>
