<svg width="40" height="32" viewBox="0 0 40 32" fill="none" xmlns="http://www.w3.org/2000/svg">
<g clipPath="url(#clip0_808_19206)">
<path d="M40 25.4413C40 28.9818 37.2127 31.8649 33.7897 31.8649H0V6.4236C0 2.88307 2.78734 0 6.21031 0H40V25.4413Z" fill="white"/>
<path d="M28.998 18.9166H31.5652C31.6387 18.9166 31.8098 18.8914 31.8832 18.8914C32.3723 18.7902 32.7879 18.3349 32.7879 17.7027C32.7879 17.0958 32.3723 16.6405 31.8832 16.5141C31.8098 16.4888 31.6632 16.4888 31.5654 16.4888H28.9982V18.9166H28.998Z" fill="#51BEF9"/>
<path d="M31.2712 2.14941C28.8262 2.14941 26.8212 4.19806 26.8212 6.75224V11.532H33.105C33.2517 11.532 33.4228 11.532 33.545 11.5573C34.9631 11.6332 36.0145 12.3918 36.0145 13.7067C36.0145 14.7437 35.3055 15.6288 33.9852 15.806V15.8564C35.4277 15.9576 36.528 16.7922 36.528 18.0819C36.528 19.4729 35.3055 20.3833 33.6917 20.3833H26.7969V29.7405H33.325C35.77 29.7405 37.775 27.692 37.775 25.1377V2.14941H31.2712Z" fill="#51BEF9"/>
<path d="M32.4699 14.0104C32.4699 13.4033 32.0543 12.9986 31.5652 12.9227C31.5165 12.9227 31.3941 12.8975 31.3209 12.8975H28.998V15.1229H31.3209C31.3943 15.1229 31.5409 15.1229 31.5654 15.0977C32.0545 15.0217 32.4701 14.6172 32.4701 14.0102L32.4699 14.0104Z" fill="#51BEF9"/>
<path d="M6.67555 2.14941C4.23055 2.14941 2.22555 4.19806 2.22555 6.75224V18.1074C3.47258 18.7395 4.76836 19.1442 6.0643 19.1442C7.60461 19.1442 8.43586 18.1832 8.43586 16.8681V11.5067H12.2501V16.8427C12.2501 18.9164 11.0032 20.611 6.77336 20.611C4.20617 20.611 2.20117 20.0292 2.20117 20.0292V29.7152H8.7293C11.1743 29.7152 13.1793 27.6667 13.1793 25.1123V2.14974H6.67539L6.67555 2.14941Z" fill="#51BEF9"/>
<path d="M18.9734 2.14941C16.5284 2.14941 14.5234 4.19806 14.5234 6.75224V12.7712C15.6483 11.7848 17.6042 11.1526 20.7583 11.3043C22.4453 11.3803 24.2545 11.8608 24.2545 11.8608V13.8081C23.3498 13.3276 22.2742 12.8975 20.8805 12.7964C18.4844 12.6194 17.0419 13.8333 17.0419 15.9576C17.0419 18.1072 18.4844 19.3211 20.8805 19.1188C22.2742 19.0176 23.35 18.5625 24.2545 18.1072V20.0545C24.2545 20.0545 22.4697 20.535 20.7583 20.611C17.6042 20.7626 15.6483 20.1303 14.5236 19.1442V29.7657H21.0517C23.4967 29.7657 25.5016 27.7172 25.5016 25.1629V2.14974H18.9734V2.14941Z" fill="#51BEF9"/>
</g>
<defs>
<clipPath id="clip0_808_19206">
<rect width="40" height="32" fill="white"/>
</clipPath>
</defs>
</svg>
