<svg width="200" height="34" viewBox="0 0 200 34" fill="none" xmlns="http://www.w3.org/2000/svg">
<g clipPath="url(#clip0_479_2333)">
<path fillRule="evenodd" clipRule="evenodd" d="M14.1024 4.00054L33.6392 13.2803L52.6395 3.93203L52.9052 21.4504L33.6342 30.8854L28.5607 28.7208L27.5731 30.9539L33.6191 34L55.5472 23.0579L55.3216 0L33.6191 10.9421L11.5557 0.0182673L11.5908 22.9392L25.0865 29.5154L27.7435 28.3737L14.0272 21.7289L14.1024 4.00054Z" fill="#9A9AA5"/>
<path fillRule="evenodd" clipRule="evenodd" d="M29.4181 9.62688L27.6885 8.00566L44.0719 0.0548096L44.127 6.37073L41.485 7.20189V3.96401L29.4181 9.62688Z" fill="#9A9AA5"/>
<path fillRule="evenodd" clipRule="evenodd" d="M24.2693 26.6885L23.9334 28.9537L25.3321 29.657L22.0835 31.1275L2.77736 21.7107L2.81245 3.94574L12.1221 8.48516L11.8213 5.53956L0.0751993 0L0 22.8524L21.9281 33.8265L30.586 29.5839L24.2693 26.6885Z" fill="#9A9AA5"/>
<path d="M67.2568 25.3427H65.6631V20.4228H58.9258V19.1745H73.9797V20.4028H67.2568V25.3427ZM87.9614 25.3427H75.0663V19.1745H87.9759V20.4028H76.421V21.6245H87.9759V22.8595H76.421V24.0878H87.9759V25.3227L87.9614 25.3427ZM101.972 25.3427H90.6708C89.6131 25.3427 89.0915 24.8447 89.0915 23.8421V20.6419C89.0601 20.4448 89.0792 20.2438 89.1473 20.0547C89.2155 19.8656 89.3308 19.6937 89.4841 19.5526C89.6373 19.4115 89.8244 19.305 90.0304 19.2417C90.2364 19.1784 90.4556 19.1599 90.6708 19.1878H101.987V20.4161H90.975C90.9039 20.4053 90.8309 20.4098 90.762 20.4294C90.6931 20.4489 90.6301 20.4829 90.5781 20.5287C90.526 20.5745 90.4864 20.6307 90.4622 20.693C90.438 20.7553 90.4301 20.8219 90.439 20.8875V23.6164C90.439 23.9484 90.6128 24.1143 90.9533 24.1143H101.987V25.3493L101.972 25.3427ZM115.975 25.3427H114.635V22.8794H104.428V25.3427H103.095V19.1878H104.428V21.6245H114.65V19.1679H115.99V25.3227L115.975 25.3427ZM128.631 25.3427H129.993V19.2011H128.639V23.8952L118.431 19.1878H117.077V25.3559H118.417V20.6087L128.61 25.3427H128.631ZM142.649 23.6164V20.9606C142.649 20.6153 142.468 20.4427 142.113 20.4427H132.985C132.913 20.4328 132.839 20.4385 132.77 20.4592C132.7 20.48 132.637 20.5153 132.585 20.5623C132.533 20.6093 132.494 20.6668 132.47 20.7301C132.447 20.7935 132.439 20.861 132.449 20.9274V23.6164C132.439 23.6835 132.445 23.7519 132.468 23.8164C132.491 23.8808 132.53 23.9395 132.582 23.9877C132.634 24.036 132.697 24.0726 132.767 24.0945C132.837 24.1165 132.912 24.1233 132.985 24.1143H142.121C142.193 24.1245 142.266 24.119 142.335 24.0982C142.405 24.0775 142.467 24.042 142.519 23.9948C142.571 23.9476 142.609 23.89 142.632 23.8265C142.654 23.7631 142.66 23.6956 142.649 23.6297V23.6164ZM132.71 25.336C132.491 25.361 132.268 25.3396 132.059 25.2736C131.85 25.2076 131.661 25.0986 131.505 24.9551C131.349 24.8116 131.231 24.6373 131.16 24.4455C131.089 24.2537 131.066 24.0496 131.095 23.8488V20.6551C131.069 20.4565 131.093 20.2553 131.164 20.0663C131.236 19.8774 131.353 19.7056 131.507 19.5639C131.661 19.4222 131.848 19.3142 132.053 19.2479C132.259 19.1816 132.479 19.1588 132.696 19.1812H142.367C142.591 19.1519 142.819 19.171 143.033 19.2369C143.247 19.3029 143.442 19.4138 143.601 19.5609C143.76 19.708 143.879 19.8872 143.949 20.0841C144.019 20.281 144.038 20.4902 144.004 20.695V23.882C144.033 24.0786 144.012 24.2788 143.943 24.4667C143.873 24.6547 143.757 24.8252 143.603 24.9649C143.449 25.1046 143.262 25.2096 143.056 25.2717C142.85 25.3338 142.632 25.3513 142.418 25.3227H132.71V25.336ZM157.971 25.336H145.062V19.1679H146.416V24.1011H158.008V25.336H157.971ZM170.613 23.6164V20.9606C170.613 20.6153 170.439 20.4427 170.077 20.4427H160.956C160.884 20.4328 160.81 20.4385 160.741 20.4592C160.671 20.48 160.608 20.5153 160.556 20.5623C160.504 20.6093 160.465 20.6668 160.441 20.7301C160.417 20.7935 160.41 20.861 160.42 20.9274V23.6164C160.409 23.6835 160.416 23.7519 160.439 23.8164C160.462 23.8808 160.501 23.9395 160.553 23.9877C160.605 24.036 160.668 24.0726 160.738 24.0945C160.808 24.1165 160.883 24.1233 160.956 24.1143H170.127C170.199 24.1234 170.272 24.117 170.34 24.0957C170.408 24.0744 170.47 24.0388 170.521 23.9918C170.571 23.9447 170.609 23.8875 170.632 23.8246C170.654 23.7618 170.66 23.695 170.649 23.6297L170.613 23.6164ZM160.71 25.3427C160.491 25.3665 160.269 25.3443 160.061 25.2778C159.853 25.2113 159.665 25.1022 159.509 24.9588C159.354 24.8154 159.237 24.6415 159.166 24.4503C159.096 24.2591 159.073 24.0556 159.101 23.8554V20.6618C159.076 20.4638 159.1 20.2632 159.171 20.0748C159.242 19.8863 159.358 19.715 159.511 19.5734C159.665 19.4318 159.85 19.3237 160.055 19.2569C160.26 19.1901 160.479 19.1665 160.695 19.1878H170.366C170.59 19.1585 170.818 19.1776 171.033 19.2436C171.247 19.3095 171.441 19.4205 171.6 19.5676C171.759 19.7147 171.879 19.8938 171.949 20.0907C172.019 20.2876 172.038 20.4968 172.004 20.7016V23.8886C172.033 24.0853 172.012 24.2854 171.942 24.4734C171.873 24.6613 171.756 24.8318 171.602 24.9715C171.449 25.1112 171.261 25.2163 171.056 25.2784C170.85 25.3405 170.632 25.3579 170.417 25.3294H160.71V25.3427ZM179.263 22.8661V21.6245H185.985V23.8089C186.019 24.0124 186 24.2203 185.931 24.416C185.862 24.6118 185.744 24.7901 185.586 24.9369C185.429 25.0837 185.236 25.195 185.024 25.262C184.812 25.3289 184.585 25.3497 184.363 25.3227H174.655C174.433 25.3486 174.208 25.3269 173.996 25.2595C173.785 25.192 173.593 25.0806 173.437 24.9339C173.28 24.7873 173.163 24.6094 173.094 24.4142C173.025 24.219 173.007 24.0118 173.04 23.8089V20.6419C173.015 20.4445 173.038 20.2445 173.109 20.0566C173.18 19.8688 173.295 19.6978 173.447 19.5564C173.6 19.4149 173.785 19.3066 173.989 19.2393C174.193 19.1721 174.411 19.1477 174.626 19.1679H185.935V20.3962H174.916C174.568 20.3962 174.394 20.5755 174.394 20.9274V23.5832C174.394 23.9152 174.568 24.0811 174.916 24.0811H184.073C184.144 24.0915 184.216 24.0869 184.285 24.0678C184.353 24.0486 184.416 24.0153 184.469 23.9705C184.521 23.9257 184.561 23.8705 184.587 23.8091C184.613 23.7477 184.623 23.6818 184.616 23.6164V22.8728L179.263 22.8661ZM198.308 25.3493H187.079V24.1011H198.12C198.453 24.1011 198.627 23.9417 198.627 23.6164V22.8794H188.702C188.48 22.9061 188.255 22.8854 188.043 22.8188C187.831 22.7522 187.639 22.6415 187.482 22.4955C187.325 22.3495 187.207 22.1721 187.137 21.9772C187.067 21.7823 187.047 21.5752 187.079 21.3722V19.1745H188.434V21.1664C188.434 21.4851 188.615 21.6444 188.985 21.6444H198.627V19.1612H199.982V23.8089C200.018 24.0174 200 24.2309 199.929 24.4316C199.857 24.6324 199.735 24.8147 199.571 24.9633C199.408 25.112 199.208 25.2227 198.988 25.2864C198.768 25.3501 198.535 25.3648 198.308 25.3294V25.3493Z" fill="#9A9AA5"/>
<path d="M156.384 14.8376V12.4081H140.683V3.10089H136.832V13.0109C136.797 13.2924 136.85 13.5773 136.985 13.8326C137.12 14.088 137.331 14.3034 137.594 14.454C138.13 14.7175 138.731 14.8497 139.339 14.8376H156.384ZM157.387 3.11003V5.53957H176.598V3.10089L157.387 3.11003ZM157.387 7.67685V14.8376H177.28V12.2345H161.398V10.1155H172.928V7.66772L157.387 7.67685ZM178.623 3.11003L186.645 8.75462L178.282 14.8376H183.135L189.151 10.5814L194.987 14.8376H200L191.477 8.75462L199.679 3.10089H194.826L189.151 7.06489L183.456 3.10089L178.623 3.11003Z" fill="#9A9AA5"/>
<path d="M118.579 3.10089V5.54871H131.453H131.513L131.694 5.60351C131.864 5.64918 131.955 5.72225 131.955 5.82272V7.80929H120.584V10.0927H131.955V14.8057H135.805V4.92762C135.816 4.65297 135.745 4.38066 135.601 4.1395C135.456 3.89834 135.242 3.69728 134.983 3.55757C134.474 3.27424 133.894 3.11681 133.298 3.10089H118.579Z" fill="#9A9AA5"/>
<path fillRule="evenodd" clipRule="evenodd" d="M118.584 6.5625H122.414V14.8056H118.584V6.5625Z" fill="#9A9AA5"/>
<path d="M63.0669 3.416C62.2507 2.99489 61.2855 2.88333 60.3797 3.10545C59.2735 3.31248 58.7187 3.82396 58.7153 4.6399V14.833H62.5655V6.29766C63.2003 6.96584 63.9284 7.5554 64.7313 8.05131C65.3479 8.47603 65.9695 8.90988 66.6062 9.35743L68.5815 10.7275C69.2499 10.2617 69.8949 9.80497 70.5166 9.35743L72.3314 8.05131C72.933 7.62203 73.4193 7.26582 73.7852 6.97355C74.1512 6.68127 74.4219 6.45293 74.5974 6.29766V14.8285H78.608V4.6399C78.608 3.82092 78.0198 3.30943 76.8433 3.10545C75.6669 2.90146 74.8046 3.00498 74.2565 3.416L68.5815 7.52613L63.0669 3.416Z" fill="#9A9AA5"/>
<path fillRule="evenodd" clipRule="evenodd" d="M98.0498 3.09631H117.401V5.54413H98.0498V3.09631Z" fill="#9A9AA5"/>
<path fillRule="evenodd" clipRule="evenodd" d="M105.911 14.8239H109.936V4.58508H105.911V14.8239Z" fill="#9A9AA5"/>
<path d="M79.7363 3.10089V5.54871H92.6105H92.6706L92.8511 5.60351C93.0216 5.64918 93.1118 5.72225 93.1118 5.82272V7.80929H81.7416V10.0927H93.1118V14.8057H96.9419V4.92762C96.9531 4.65297 96.8826 4.38066 96.7379 4.1395C96.5932 3.89834 96.3796 3.69728 96.1198 3.55757C95.6116 3.27424 95.0309 3.11681 94.4353 3.10089H79.7363Z" fill="#9A9AA5"/>
<path fillRule="evenodd" clipRule="evenodd" d="M79.7412 6.5625H83.5714V14.8056H79.7412V6.5625Z" fill="#9A9AA5"/>
</g>
<defs>
<clipPath id="clip0_479_2333">
<rect width="200" height="34" fill="white"/>
</clipPath>
</defs>
</svg>
