<svg width="84" height="24" viewBox="0 0 84 24" fill="none" xmlns="http://www.w3.org/2000/svg">
<g clipPath="url(#clip0_808_19218)">
<path d="M80.8272 14.9778C82.0707 14.2296 83.036 12.342 83.3632 11.4918L60.0488 11.4067V24.0756H67.5749V17.1035H75.5917C77.4732 17.1035 79.2729 15.9131 80.8272 14.9778Z" fill="#51BEF9"/>
<path d="M41.004 0.145508H33.231L33.2051 24.0756H40.2436C41.5955 24.0756 42.891 22.7836 43.3697 22.1376L48.946 9.91976H49.4529V24.0756H57.2259L57.1414 0.145508H49.8754C48.3208 0.145508 47.1999 1.77455 46.8338 2.58907L41.4265 14.3013H40.8351L41.004 0.145508Z" fill="#51BEF9"/>
<path d="M0 24.0756H7.72071L7.63679 10.0883H8.14031L12.3035 24.0756H17.959L22.1551 9.91976H22.6586L22.5056 24.0756H30.3793V0.145508H22.1551C19.7382 0.145508 18.5185 3.1789 18.2108 4.69559L15.2736 14.3013H14.9379C14.3784 12.4195 13.0413 7.8638 12.1685 4.69559C11.2957 1.52739 9.39912 0.342116 8.55991 0.145508H0V24.0756Z" fill="#51BEF9"/>
<path d="M76.5535 0.145508H59.3438C59.3438 1.21298 59.7656 3.10158 61.6215 5.97553C63.1063 8.2747 67.1893 9.61587 69.0453 9.99907H84.0616V9.67062C84.0616 8.2747 84.3147 6.13976 82.2057 3.2658C80.5184 0.966638 77.7345 0.227621 76.5535 0.145508Z" fill="#51BEF9"/>
</g>
<defs>
<clipPath id="clip0_808_19218">
<rect width="84" height="24" fill="white"/>
</clipPath>
</defs>
</svg>
