<svg width="40" height="32" viewBox="0 0 40 32" fill="none" xmlns="http://www.w3.org/2000/svg">
<g clipPath="url(#clip0_808_19213)">
<path d="M7.27156 31.8411V29.7231C7.27156 28.911 6.79125 28.3817 5.96797 28.3817C5.55641 28.3817 5.11047 28.5229 4.80172 28.9818C4.56172 28.5935 4.21875 28.3817 3.70422 28.3817C3.36109 28.3817 3.01828 28.4875 2.74375 28.8758V28.4523H2.02344V31.8411H2.74375V29.9701C2.74375 29.3701 3.0525 29.0876 3.53281 29.0876C4.01281 29.0876 4.25313 29.4054 4.25313 29.9701V31.8411H4.97344V29.9701C4.97344 29.3701 5.31625 29.0876 5.76219 29.0876C6.2425 29.0876 6.4825 29.4054 6.4825 29.9701V31.8411H7.27156ZM17.9389 28.4523H16.7728V27.4286H16.0525V28.4523H15.4008V29.1228H16.0523V30.6762C16.0523 31.4529 16.3611 31.9116 17.1844 31.9116C17.4931 31.9116 17.8359 31.8058 18.0763 31.6646L17.8703 31.0292C17.6645 31.1703 17.4245 31.2057 17.253 31.2057C16.91 31.2057 16.7728 30.9939 16.7728 30.6408V29.1228H17.9389V28.4523ZM24.0445 28.3815C23.633 28.3815 23.3586 28.5935 23.187 28.8758V28.4523H22.4667V31.8411H23.187V29.9349C23.187 29.3701 23.427 29.0524 23.873 29.0524C24.0102 29.0524 24.1817 29.0878 24.3189 29.123L24.5247 28.4171C24.3875 28.3817 24.1817 28.3817 24.0445 28.3817V28.3815ZM14.8177 28.7346C14.4745 28.4875 13.9944 28.3817 13.4798 28.3817C12.6567 28.3817 12.108 28.8052 12.108 29.4759C12.108 30.0408 12.5195 30.3584 13.2398 30.4644L13.5828 30.4998C13.9602 30.5702 14.1659 30.6762 14.1659 30.8528C14.1659 31.0997 13.8916 31.2763 13.4113 31.2763C12.9311 31.2763 12.5537 31.0997 12.3136 30.9233L11.9706 31.4881C12.348 31.7705 12.8625 31.9116 13.3769 31.9116C14.3373 31.9116 14.8863 31.4529 14.8863 30.8174C14.8863 30.2173 14.4403 29.8995 13.7542 29.7937L13.4113 29.7583C13.1025 29.7229 12.8625 29.6525 12.8625 29.4407C12.8625 29.1936 13.1025 29.0524 13.4798 29.0524C13.8916 29.0524 14.3031 29.2288 14.5089 29.3348L14.8177 28.7346ZM33.9575 28.3817C33.5458 28.3817 33.2714 28.5935 33.0998 28.8758V28.4523H32.3795V31.8411H33.0998V29.9349C33.0998 29.3701 33.34 29.0524 33.7858 29.0524C33.9231 29.0524 34.0947 29.0878 34.2319 29.123L34.4377 28.4171C34.3005 28.3817 34.0947 28.3817 33.9575 28.3817ZM24.7648 30.1467C24.7648 31.1703 25.4508 31.9116 26.5142 31.9116C26.9944 31.9116 27.3373 31.8058 27.6803 31.5235L27.3373 30.9233C27.063 31.1351 26.7886 31.2409 26.4798 31.2409C25.8967 31.2409 25.4852 30.8174 25.4852 30.1467C25.4852 29.5113 25.8967 29.0876 26.4798 29.0524C26.7886 29.0524 27.063 29.1582 27.3373 29.3701L27.6803 28.77C27.3373 28.4875 26.9944 28.3817 26.5142 28.3817C25.4508 28.3817 24.7648 29.123 24.7648 30.1467ZM31.4192 30.1467V28.4523H30.6989V28.8758C30.4588 28.5582 30.1158 28.3817 29.6698 28.3817C28.7438 28.3817 28.0234 29.123 28.0234 30.1467C28.0234 31.1703 28.7438 31.9116 29.6698 31.9116C30.15 31.9116 30.4931 31.7352 30.6989 31.4175V31.8411H31.4192V30.1467ZM28.778 30.1467C28.778 29.5465 29.1553 29.0524 29.7727 29.0524C30.3558 29.0524 30.7675 29.5113 30.7675 30.1467C30.7675 30.7468 30.3558 31.2409 29.7727 31.2409C29.1553 31.2056 28.778 30.7468 28.778 30.1467ZM20.1686 28.3817C19.2081 28.3817 18.522 29.0876 18.522 30.1467C18.522 31.2057 19.208 31.9116 20.2028 31.9116C20.683 31.9116 21.1633 31.7705 21.5406 31.4529L21.1975 30.9233C20.9231 31.1351 20.5802 31.2763 20.2372 31.2763C19.7913 31.2763 19.3453 31.0645 19.2423 30.4642H21.6778V30.182C21.7122 29.0876 21.0947 28.3817 20.1684 28.3817H20.1686ZM20.1686 29.017C20.6144 29.017 20.9233 29.2995 20.9917 29.8291H19.2767C19.3453 29.3701 19.6541 29.017 20.1686 29.017ZM38.0392 30.1467V27.1108H37.3189V28.8758C37.0788 28.5582 36.7358 28.3817 36.2898 28.3817C35.3638 28.3817 34.6434 29.123 34.6434 30.1467C34.6434 31.1703 35.3638 31.9116 36.2898 31.9116C36.7702 31.9116 37.1131 31.7352 37.3189 31.4175V31.8411H38.0392V30.1467ZM35.3981 30.1467C35.3981 29.5465 35.7753 29.0524 36.3928 29.0524C36.9759 29.0524 37.3875 29.5113 37.3875 30.1467C37.3875 30.7468 36.9759 31.2409 36.3928 31.2409C35.7753 31.2056 35.3981 30.7468 35.3981 30.1467ZM11.3189 30.1467V28.4523H10.5986V28.8758C10.3584 28.5582 10.0155 28.3817 9.56953 28.3817C8.64344 28.3817 7.92312 29.123 7.92312 30.1467C7.92312 31.1703 8.64344 31.9116 9.56953 31.9116C10.0498 31.9116 10.3928 31.7352 10.5986 31.4175V31.8411H11.3189V30.1467ZM8.64344 30.1467C8.64344 29.5465 9.02078 29.0524 9.63813 29.0524C10.2213 29.0524 10.633 29.5113 10.633 30.1467C10.633 30.7468 10.2213 31.2409 9.63813 31.2409C9.02078 31.2056 8.64344 30.7468 8.64344 30.1467Z" fill="#51BEF9"/>
<path d="M14.5781 2.71826H25.3828V22.6983H14.5781V2.71826Z" fill="#3097CE"/>
<path d="M15.2639 12.7082C15.2639 8.64868 17.1161 5.04796 19.963 2.71807C17.8708 1.02368 15.2297 0 12.3484 0C5.52234 0 0 5.6833 0 12.7082C0 19.7329 5.52234 25.4164 12.3483 25.4164C15.2295 25.4164 17.8706 24.3927 19.963 22.6981C17.1161 20.4036 15.2639 16.7677 15.2639 12.7082Z" fill="#51BEF9"/>
<path d="M39.961 12.7082C39.961 19.7329 34.4387 25.4164 27.6127 25.4164C24.7315 25.4164 22.0904 24.3927 19.998 22.6981C22.8793 20.3684 24.6973 16.7677 24.6973 12.7082C24.6973 8.64868 22.8449 5.04796 19.998 2.71807C22.0902 1.02368 24.7315 0 27.6127 0C34.4387 0 39.9612 5.71867 39.9612 12.7082H39.961Z" fill="#51BEF9"/>
</g>
<defs>
<clipPath id="clip0_808_19213">
<rect width="40" height="32" fill="white"/>
</clipPath>
</defs>
</svg>
