<svg width="28" height="28" viewBox="0 0 28 28" fill="none" xmlns="http://www.w3.org/2000/svg">
<path d="M14.0001 0.666687C6.64008 0.666687 0.666748 6.64002 0.666748 14C0.666748 21.36 6.64008 27.3334 14.0001 27.3334C21.3601 27.3334 27.3334 21.36 27.3334 14C27.3334 6.64002 21.3601 0.666687 14.0001 0.666687ZM20.1867 9.73335C19.9867 11.84 19.1201 16.96 18.6801 19.32C18.4934 20.32 18.1201 20.6534 17.7734 20.6934C17.0001 20.76 16.4134 20.1867 15.6667 19.6934C14.4934 18.92 13.8267 18.44 12.6934 17.6934C11.3734 16.8267 12.2267 16.3467 12.9867 15.5734C13.1867 15.3734 16.6001 12.2667 16.6667 11.9867C16.676 11.9443 16.6748 11.9003 16.6632 11.8584C16.6515 11.8166 16.6299 11.7782 16.6001 11.7467C16.5201 11.68 16.4134 11.7067 16.3201 11.72C16.2001 11.7467 14.3334 12.9867 10.6934 15.44C10.1601 15.8 9.68008 15.9867 9.25341 15.9734C8.77341 15.96 7.86675 15.7067 7.18675 15.48C6.34675 15.2134 5.69341 15.0667 5.74675 14.6C5.77341 14.36 6.10675 14.12 6.73342 13.8667C10.6267 12.1734 13.2134 11.0534 14.5067 10.52C18.2134 8.97335 18.9734 8.70669 19.4801 8.70669C19.5868 8.70669 19.8401 8.73335 20.0001 8.86669C20.1334 8.97335 20.1734 9.12002 20.1867 9.22669C20.1734 9.30669 20.2001 9.54669 20.1867 9.73335Z" fill="white"/>
</svg>
