<svg width="14" height="14" viewBox="0 0 14 14" fill="none" xmlns="http://www.w3.org/2000/svg">
<path d="M6.99998 0.333984C3.31998 0.333984 0.333313 3.32065 0.333313 7.00065C0.333313 10.6807 3.31998 13.6673 6.99998 13.6673C10.68 13.6673 13.6666 10.6807 13.6666 7.00065C13.6666 3.32065 10.68 0.333984 6.99998 0.333984ZM10.0933 4.86732C9.99331 5.92065 9.55998 8.48065 9.33998 9.66065C9.24665 10.1607 9.05998 10.3273 8.88665 10.3473C8.49998 10.3807 8.20665 10.094 7.83331 9.84732C7.24665 9.46065 6.91331 9.22065 6.34665 8.84732C5.68665 8.41398 6.11331 8.17398 6.49331 7.78732C6.59331 7.68732 8.29998 6.13398 8.33331 5.99398C8.33794 5.97278 8.33733 5.95077 8.33152 5.92985C8.32571 5.90894 8.31488 5.88976 8.29998 5.87398C8.25998 5.84065 8.20665 5.85398 8.15998 5.86065C8.09998 5.87398 7.16665 6.49398 5.34665 7.72065C5.07998 7.90065 4.83998 7.99398 4.62665 7.98732C4.38665 7.98065 3.93331 7.85398 3.59331 7.74065C3.17331 7.60732 2.84665 7.53398 2.87331 7.30065C2.88665 7.18065 3.05331 7.06065 3.36665 6.93398C5.31331 6.08732 6.60665 5.52732 7.25331 5.26065C9.10665 4.48732 9.48665 4.35398 9.73998 4.35398C9.79331 4.35398 9.91998 4.36732 9.99998 4.43398C10.0666 4.48732 10.0866 4.56065 10.0933 4.61398C10.0866 4.65398 10.1 4.77398 10.0933 4.86732Z" fill="#9A9AA5"/>
</svg>
