<svg width="24" height="24" viewBox="0 0 24 24" fill="none" xmlns="http://www.w3.org/2000/svg">
<path d="M1.68 1.68C3.17891e-07 3.376 0 6.088 0 11.52V12.48C0 17.904 3.17891e-07 20.616 1.68 22.32C3.376 24 6.088 24 11.52 24H12.48C17.904 24 20.616 24 22.32 22.32C24 20.624 24 17.912 24 12.48V11.52C24 6.096 24 3.384 22.32 1.68C20.624 3.17891e-07 17.912 0 12.48 0H11.52C6.096 0 3.384 3.17891e-07 1.68 1.68ZM4.048 7.304H6.8C6.888 11.88 8.904 13.816 10.504 14.216V7.304H13.088V11.248C14.664 11.08 16.328 9.28 16.888 7.296H19.464C19.254 8.32304 18.8345 9.29574 18.2316 10.1533C17.6287 11.0109 16.8554 11.7348 15.96 12.28C16.9592 12.7772 17.8417 13.4806 18.5491 14.3438C19.2566 15.2071 19.7729 16.2105 20.064 17.288H17.224C16.616 15.392 15.096 13.92 13.088 13.72V17.288H12.768C7.296 17.288 4.176 13.544 4.048 7.304Z" fill="white"/>
</svg>
