<svg width="20" height="20" viewBox="0 0 20 20" fill="none" xmlns="http://www.w3.org/2000/svg">
<path d="M0 10C0 4.477 4.476 0 10 0C15.522 0 20 4.477 20 10C20 15.523 15.522 20 10 20C4.476 20 0 15.523 0 10Z" fill="#FC3F1D"/>
<path d="M11.2792 5.66655H10.3552C8.66122 5.66655 7.77022 6.52455 7.77022 7.78955C7.77022 9.21955 8.38622 9.88955 9.65122 10.7485L10.6962 11.4525L7.69322 15.9395H5.44922L8.14422 11.9255C6.59422 10.8145 5.72422 9.73555 5.72422 7.91055C5.72422 5.62255 7.31922 4.06055 10.3442 4.06055H13.3472V15.9285H11.2792V5.66655Z" fill="white"/>
</svg>
