<svg width="28" height="20" viewBox="0 0 28 20" fill="none" xmlns="http://www.w3.org/2000/svg">
<path d="M11.3334 14L18.2534 10L11.3334 6.00002V14ZM26.7467 3.56002C26.9201 4.18669 27.0401 5.02669 27.1201 6.09335C27.2134 7.16002 27.2534 8.08002 27.2534 8.88002L27.3334 10C27.3334 12.92 27.1201 15.0667 26.7467 16.44C26.4134 17.64 25.6401 18.4134 24.4401 18.7467C23.8134 18.92 22.6667 19.04 20.9067 19.12C19.1734 19.2134 17.5867 19.2534 16.1201 19.2534L14.0001 19.3334C8.41341 19.3334 4.93341 19.12 3.56008 18.7467C2.36008 18.4134 1.58675 17.64 1.25341 16.44C1.08008 15.8134 0.960081 14.9734 0.880082 13.9067C0.786748 12.84 0.746748 11.92 0.746748 11.12L0.666748 10C0.666748 7.08002 0.880081 4.93335 1.25341 3.56002C1.58675 2.36002 2.36008 1.58669 3.56008 1.25335C4.18675 1.08002 5.33342 0.96002 7.09342 0.88002C8.82675 0.786687 10.4134 0.746687 11.8801 0.746687L14.0001 0.666687C19.5867 0.666687 23.0667 0.88002 24.4401 1.25335C25.6401 1.58669 26.4134 2.36002 26.7467 3.56002Z" fill="white"/>
</svg>
